<?xml version="1.0" standalone="no"?>
<!DOCTYPE svg PUBLIC "-//W3C//DTD SVG 20010904//EN"
 "http://www.w3.org/TR/2001/REC-SVG-20010904/DTD/svg10.dtd">
<svg version="1.0" xmlns="http://www.w3.org/2000/svg"
 width="858.000000pt" height="252.000000pt" viewBox="0 0 858.000000 252.000000"
 preserveAspectRatio="xMidYMid meet">

<g transform="translate(0.000000,252.000000) scale(0.100000,-0.100000)"
fill="#000000" stroke="none">
<path d="M2045 2504 c-111 -27 -202 -80 -296 -174 -144 -144 -199 -282 -199
-502 0 -226 56 -374 195 -514 131 -133 256 -184 455 -184 178 0 300 46 422
159 90 83 156 183 193 292 37 111 47 305 20 424 -54 245 -256 455 -483 504
-72 15 -234 13 -307 -5z m300 -85 c110 -41 184 -124 229 -260 37 -112 49 -220
43 -392 -5 -170 -19 -234 -72 -343 -45 -92 -100 -148 -183 -187 -60 -28 -77
-31 -162 -32 -88 0 -101 3 -162 33 -109 53 -183 157 -230 317 -20 71 -23 101
-23 275 0 214 9 267 66 386 92 195 293 277 494 203z"/>
<path d="M6241 1973 c-234 -548 -287 -664 -323 -715 -12 -18 -38 -33 -73 -44
-40 -13 -55 -23 -55 -36 0 -17 14 -18 210 -18 203 0 210 1 210 20 0 12 -7 20
-17 20 -36 0 -95 22 -115 42 -28 28 -20 69 48 227 l56 131 257 0 256 0 58
-143 c54 -137 66 -187 49 -214 -10 -16 -75 -43 -102 -43 -13 0 -20 -7 -20 -20
0 -19 7 -20 265 -20 258 0 265 1 265 20 0 13 -7 20 -20 20 -30 0 -91 27 -118
53 -37 35 -83 134 -327 720 -198 474 -231 547 -249 547 -18 0 -53 -75 -255
-547z m318 -47 c56 -132 101 -241 101 -243 0 -1 -99 -3 -220 -3 -121 0 -220 2
-220 4 0 3 123 293 207 486 13 31 16 33 23 15 4 -11 53 -128 109 -259z"/>
<path d="M0 2471 c0 -14 10 -20 45 -24 58 -8 116 -38 171 -89 l45 -41 -3 -516
c-2 -416 -6 -521 -17 -543 -18 -35 -67 -58 -125 -58 -39 0 -46 -3 -46 -20 0
-19 7 -20 235 -20 228 0 235 1 235 20 0 17 -7 20 -47 20 -27 0 -64 8 -83 18
-56 27 -58 50 -59 545 l-1 438 433 -528 c305 -373 439 -529 455 -531 l22 -3 0
568 c0 322 4 594 10 628 13 82 40 107 120 113 50 4 60 7 60 23 0 18 -12 19
-235 19 -228 0 -235 -1 -235 -20 0 -17 7 -20 48 -20 26 0 63 -8 82 -18 59 -29
61 -43 58 -509 l-3 -415 -400 491 -400 491 -182 0 c-172 0 -183 -1 -183 -19z"/>
<path d="M3460 2470 c0 -17 7 -20 44 -20 63 0 104 -18 124 -54 15 -28 17 -81
20 -541 4 -535 0 -596 -39 -631 -14 -12 -41 -19 -85 -22 -55 -4 -64 -7 -64
-23 0 -18 13 -19 290 -19 283 0 290 0 290 20 0 17 -7 20 -45 20 -59 0 -109 21
-131 56 -16 24 -19 58 -22 291 l-4 263 146 0 c176 0 216 -12 246 -71 11 -21
20 -51 20 -66 0 -37 14 -57 34 -50 14 6 16 34 16 232 l0 226 -22 -3 c-17 -2
-24 -12 -30 -42 -25 -121 -53 -136 -257 -136 l-151 0 0 256 0 255 213 -3 c188
-3 216 -5 252 -23 45 -22 84 -75 110 -147 13 -36 22 -48 37 -48 20 0 21 4 15
68 -4 37 -7 104 -7 150 l0 82 -500 0 c-493 0 -500 0 -500 -20z"/>
<path d="M4590 2470 c0 -17 7 -20 44 -20 63 0 104 -18 124 -54 15 -28 17 -81
20 -534 2 -338 -1 -521 -8 -557 -15 -73 -44 -98 -120 -103 -51 -4 -60 -7 -60
-23 0 -18 18 -19 514 -19 480 0 514 1 521 17 14 34 105 307 105 315 0 4 -9 8
-20 8 -13 0 -26 -13 -39 -37 -44 -87 -108 -160 -163 -187 -70 -34 -195 -49
-361 -44 -185 6 -171 -19 -175 319 l-3 271 183 -4 c260 -7 277 -16 312 -170 4
-19 13 -28 26 -28 19 0 20 7 20 235 0 223 -1 235 -19 235 -14 0 -21 -12 -30
-58 -24 -122 -50 -134 -303 -140 l-188 -4 0 261 0 261 229 0 c230 0 276 -6
315 -39 24 -21 47 -66 61 -121 8 -34 16 -46 33 -48 26 -4 26 5 15 181 l-6 107
-514 0 c-506 0 -513 0 -513 -20z"/>
<path d="M7260 2471 c0 -18 6 -21 46 -21 62 0 109 -24 126 -63 20 -48 19
-1077 -1 -1126 -17 -40 -60 -61 -126 -61 -38 0 -45 -3 -45 -20 0 -20 7 -20
285 -20 272 0 285 1 285 19 0 16 -10 19 -60 23 -116 8 -130 48 -130 369 l0
209 68 0 68 0 224 -310 224 -310 178 0 c169 0 178 1 178 19 0 15 -10 21 -39
26 -71 12 -153 59 -206 117 -43 47 -355 471 -355 482 0 2 15 7 34 10 56 11
172 74 205 112 53 60 74 112 79 195 3 45 -1 92 -8 115 -19 63 -77 140 -133
178 -98 66 -120 69 -529 74 -368 4 -368 4 -368 -17z m679 -96 c65 -36 105 -82
122 -143 31 -111 9 -213 -61 -283 -64 -64 -137 -91 -263 -97 l-97 -4 2 273 3
273 25 8 c14 4 68 6 120 5 84 -2 101 -6 149 -32z"/>
<path d="M3680 666 c-90 -24 -173 -96 -213 -185 -17 -36 -21 -67 -22 -146 0
-90 3 -106 28 -157 34 -70 110 -140 174 -162 56 -19 228 -21 288 -2 38 11 40
13 43 58 l3 46 -61 -19 c-74 -23 -129 -24 -197 -4 -172 51 -226 299 -94 436
72 74 167 87 292 40 l50 -19 -3 51 -3 52 -55 12 c-72 15 -174 15 -230 -1z"/>
<path d="M4237 666 c-87 -32 -156 -115 -178 -211 -7 -32 -10 -93 -7 -152 6
-116 29 -175 94 -240 53 -53 98 -66 206 -62 72 3 91 8 126 32 55 36 99 97 118
165 23 78 16 250 -13 313 -27 60 -77 115 -127 141 -52 27 -165 34 -219 14z
m181 -95 c51 -36 76 -102 80 -212 7 -162 -35 -254 -129 -279 -85 -23 -163 30
-194 132 -29 98 -13 256 33 326 39 60 149 77 210 33z"/>
<path d="M6106 665 c-85 -30 -126 -86 -126 -171 0 -94 52 -139 234 -205 110
-40 140 -64 140 -112 0 -19 -6 -43 -14 -52 -47 -56 -167 -65 -286 -21 -39 14
-74 26 -78 26 -3 0 -6 -22 -6 -50 0 -48 1 -49 38 -61 20 -6 90 -14 155 -16 96
-4 127 -2 163 12 91 35 134 91 134 175 0 99 -42 141 -200 196 -165 57 -184 72
-178 136 8 82 114 97 306 42 20 -6 22 -3 22 39 0 51 2 49 -94 66 -81 15 -163
13 -210 -4z"/>
<path d="M2230 336 l0 -326 55 0 55 0 0 135 0 135 43 0 42 -1 100 -134 100
-135 63 0 c48 0 61 3 56 13 -4 6 -53 73 -109 147 l-101 135 45 31 c115 77 125
235 19 299 -29 17 -54 20 -200 23 l-168 4 0 -326z m278 233 c59 -20 68 -111
16 -163 -30 -30 -80 -46 -141 -46 l-43 0 0 110 0 110 69 0 c37 0 82 -5 99 -11z"/>
<path d="M2870 335 l0 -325 235 0 235 0 0 40 0 40 -180 0 -180 0 0 110 0 110
145 0 145 0 0 40 0 40 -145 0 -145 0 0 95 0 95 170 0 170 0 0 40 0 40 -225 0
-225 0 0 -325z"/>
<path d="M4730 335 l0 -325 55 0 55 0 0 135 0 135 43 0 42 -1 100 -134 100
-134 63 0 c34 -1 62 2 62 5 0 3 -48 69 -107 146 l-108 141 25 16 c82 54 110
101 110 183 0 69 -26 113 -83 138 -36 17 -66 20 -199 20 l-158 0 0 -325z m285
231 c27 -12 35 -22 41 -50 17 -95 -51 -156 -173 -156 l-43 0 0 110 0 110 70 0
c39 0 86 -6 105 -14z"/>
<path d="M5330 335 l0 -327 158 4 c113 3 167 8 193 20 131 57 199 219 169 397
-16 98 -56 156 -134 196 -58 29 -64 30 -223 33 l-163 4 0 -327z m285 234 c84
-23 127 -100 128 -229 2 -172 -74 -250 -245 -250 l-58 0 0 245 0 245 68 0 c37
0 85 -5 107 -11z"/>
</g>
</svg>
